<svg width="28" height="37" viewBox="0 0 28 37" fill="none" xmlns="http://www.w3.org/2000/svg">
<g clip-path="url(#clip0_201_411)">
<path d="M13.202 23.5661C19.1373 23.5661 23.9489 18.908 23.9489 13.1619C23.9489 7.41581 19.1373 2.75769 13.202 2.75769C7.26663 2.75769 2.45508 7.41581 2.45508 13.1619C2.45508 18.908 7.26663 23.5661 13.202 23.5661Z" fill="#257D54"/>
<path d="M11.3382 17.9075L9.08687 37H0.0604247C-0.45737 34.3915 2.38161 30.2257 7.46358 32.7555L10.9317 17.9075H11.337H11.3382Z" fill="#257D54"/>
<path d="M20.4192 37H11.6736L13.9296 17.9075H14.336L14.0268 32.7555C19.6348 30.1864 21.565 34.4392 20.4192 37Z" fill="#257D54"/>
<path d="M9.94247 16.1439C11.5778 16.1439 12.9035 14.8088 12.9035 13.1619C12.9035 11.515 11.5778 10.1799 9.94247 10.1799C8.30714 10.1799 6.98145 11.515 6.98145 13.1619C6.98145 14.8088 8.30714 16.1439 9.94247 16.1439Z" fill="white"/>
<path d="M10.4709 14.0067C11.3321 14.0067 12.0302 13.3037 12.0302 12.4364C12.0302 11.5691 11.3321 10.866 10.4709 10.866C9.60975 10.866 8.91162 11.5691 8.91162 12.4364C8.91162 13.3037 9.60975 14.0067 10.4709 14.0067Z" fill="#0B0C1E"/>
<path d="M16.4605 16.1439C18.0959 16.1439 19.4216 14.8088 19.4216 13.1619C19.4216 11.515 18.0959 10.1799 16.4605 10.1799C14.8252 10.1799 13.4995 11.515 13.4995 13.1619C13.4995 14.8088 14.8252 16.1439 16.4605 16.1439Z" fill="white"/>
<path d="M17.2319 14.2788C18.0931 14.2788 18.7912 13.5757 18.7912 12.7084C18.7912 11.8411 18.0931 11.1381 17.2319 11.1381C16.3707 11.1381 15.6726 11.8411 15.6726 12.7084C15.6726 13.5757 16.3707 14.2788 17.2319 14.2788Z" fill="#0B0C1E"/>
</g>
<defs>
<clipPath id="clip0_201_411">
<rect width="28" height="37" fill="white"/>
</clipPath>
</defs>
</svg>
