<svg width="27" height="37" viewBox="0 0 27 37" fill="none" xmlns="http://www.w3.org/2000/svg">
<g clip-path="url(#clip0_201_397)">
<path d="M22.2229 13.6034L21.0198 13.1284L22.2195 12.6428C23.8351 11.9889 24.596 10.1954 23.9185 8.63575C23.241 7.07614 21.382 6.34227 19.7664 6.99619L18.5667 7.48185L19.0592 6.3196C19.723 4.75521 18.946 2.96648 17.3247 2.32689C15.7034 1.6861 13.8513 2.43547 13.1875 4.00106L12.6951 5.16331L12.1923 4.00583C11.5148 2.44621 9.65584 1.71235 8.04025 2.36626C6.42466 3.02018 5.66371 4.81368 6.34125 6.3733L6.84398 7.53078L5.64086 7.05585C4.01955 6.41506 2.16745 7.16444 1.50362 8.73002C0.839789 10.2944 1.61673 12.0831 3.23804 12.7227L4.44116 13.1977L3.24146 13.6833C1.62587 14.3372 0.864925 16.1307 1.54247 17.6904C2.22001 19.25 4.07897 19.9838 5.69456 19.3299L6.89425 18.8443L6.4018 20.0065C5.73797 21.5709 6.51492 23.3596 8.13622 23.9992C9.75752 24.6388 11.6096 23.8906 12.2735 22.325L12.7659 21.1628L13.2686 22.3203C13.9462 23.8799 15.8051 24.6138 17.4207 23.9598C19.0363 23.3059 19.7973 21.5124 19.1197 19.9528L18.617 18.7953L19.8201 19.2703C21.4414 19.911 23.2935 19.1617 23.9573 17.5961C24.6212 16.0317 23.8442 14.243 22.2229 13.6034Z" fill="#257D54"/>
<path d="M10.9332 17.9075L8.76234 37H0.0582667C-0.441035 34.3915 2.29656 30.2257 7.19702 32.7555L10.5413 17.9075H10.9321H10.9332Z" fill="#257D54"/>
<path d="M19.6899 37H11.2566L13.432 17.9075H13.8239L13.5257 32.7555C18.9335 30.1864 20.7947 34.4392 19.6899 37Z" fill="#257D54"/>
<path d="M9.58721 16.1439C11.1641 16.1439 12.4425 14.8088 12.4425 13.1619C12.4425 11.515 11.1641 10.1799 9.58721 10.1799C8.01028 10.1799 6.73193 11.515 6.73193 13.1619C6.73193 14.8088 8.01028 16.1439 9.58721 16.1439Z" fill="white"/>
<path d="M10.0969 14.0067C10.9273 14.0067 11.6005 13.3037 11.6005 12.4364C11.6005 11.5691 10.9273 10.866 10.0969 10.866C9.26645 10.866 8.59326 11.5691 8.59326 12.4364C8.59326 13.3037 9.26645 14.0067 10.0969 14.0067Z" fill="#0B0C1E"/>
<path d="M15.8724 16.1439C17.4493 16.1439 18.7276 14.8088 18.7276 13.1619C18.7276 11.515 17.4493 10.1799 15.8724 10.1799C14.2954 10.1799 13.0171 11.515 13.0171 13.1619C13.0171 14.8088 14.2954 16.1439 15.8724 16.1439Z" fill="white"/>
<path d="M16.6162 14.2788C17.4466 14.2788 18.1198 13.5757 18.1198 12.7084C18.1198 11.8411 17.4466 11.1381 16.6162 11.1381C15.7857 11.1381 15.1125 11.8411 15.1125 12.7084C15.1125 13.5757 15.7857 14.2788 16.6162 14.2788Z" fill="#0B0C1E"/>
</g>
<defs>
<clipPath id="clip0_201_397">
<rect width="27" height="37" fill="white"/>
</clipPath>
</defs>
</svg>
