<svg width="27" height="37" viewBox="0 0 27 37" fill="none" xmlns="http://www.w3.org/2000/svg">
<g clip-path="url(#clip0_201_425)">
<path d="M18.1553 7.49619C18.1553 4.36742 15.7262 1.83051 12.7304 1.83051C9.73462 1.83051 7.30552 4.36742 7.30552 7.49619C4.30971 7.49619 1.88062 10.0331 1.88062 13.1619C1.88062 16.2907 4.30971 18.8276 7.30552 18.8276C7.30552 21.9563 9.73462 24.4933 12.7304 24.4933C15.7262 24.4933 18.1553 21.9563 18.1553 18.8276C21.1511 18.8276 23.5802 16.2907 23.5802 13.1619C23.5802 10.0331 21.1511 7.49619 18.1553 7.49619Z" fill="#257D54"/>
<path d="M10.9332 17.9075L8.76234 37H0.0582667C-0.441035 34.3915 2.29656 30.2257 7.19702 32.7555L10.5413 17.9075H10.9321H10.9332Z" fill="#257D54"/>
<path d="M19.6899 37H11.2566L13.432 17.9075H13.8239L13.5257 32.7555C18.9335 30.1864 20.7947 34.4392 19.6899 37Z" fill="#257D54"/>
<path d="M9.58733 16.1439C11.1643 16.1439 12.4426 14.8088 12.4426 13.1619C12.4426 11.515 11.1643 10.1799 9.58733 10.1799C8.01041 10.1799 6.73206 11.515 6.73206 13.1619C6.73206 14.8088 8.01041 16.1439 9.58733 16.1439Z" fill="white"/>
<path d="M10.0969 14.0067C10.9273 14.0067 11.6005 13.3037 11.6005 12.4364C11.6005 11.5691 10.9273 10.866 10.0969 10.866C9.26645 10.866 8.59326 11.5691 8.59326 12.4364C8.59326 13.3037 9.26645 14.0067 10.0969 14.0067Z" fill="#0B0C1E"/>
<path d="M15.8726 16.1439C17.4495 16.1439 18.7279 14.8088 18.7279 13.1619C18.7279 11.515 17.4495 10.1799 15.8726 10.1799C14.2957 10.1799 13.0173 11.515 13.0173 13.1619C13.0173 14.8088 14.2957 16.1439 15.8726 16.1439Z" fill="white"/>
<path d="M16.6164 14.2788C17.4468 14.2788 18.12 13.5757 18.12 12.7084C18.12 11.8411 17.4468 11.1381 16.6164 11.1381C15.786 11.1381 15.1128 11.8411 15.1128 12.7084C15.1128 13.5757 15.786 14.2788 16.6164 14.2788Z" fill="#0B0C1E"/>
</g>
<defs>
<clipPath id="clip0_201_425">
<rect width="27" height="37" fill="white"/>
</clipPath>
</defs>
</svg>
