<svg width="28" height="36" viewBox="0 0 28 36" fill="none" xmlns="http://www.w3.org/2000/svg">
<g clip-path="url(#clip0_201_383)">
<path d="M26.2701 8.10398C18.2342 9.27545 17.0931 8.12952 19.0494 0.426097C14.3217 6.87213 12.6913 6.76183 8.40318 0C9.59873 7.87409 8.42925 8.99216 0.567543 7.0753C7.14602 11.7078 7.03346 13.3054 0.13269 17.5071C8.16858 16.3357 9.30962 17.4816 7.35338 25.185C12.0811 18.739 13.7115 18.8493 17.9996 25.6111C16.804 17.737 17.9735 16.619 25.8352 18.5358C19.2567 13.9033 19.3693 12.3057 26.2701 8.10398Z" fill="#FAA24B"/>
<path d="M11.3382 17.4236L9.08687 36H0.0604247C-0.45737 33.462 2.38161 29.4089 7.46358 31.8703L10.9317 17.4236H11.337H11.3382Z" fill="#FAA24B"/>
<path d="M20.4191 36H11.6735L13.9295 17.4236H14.3359L14.0266 31.8703C19.6347 29.3706 21.5649 33.5085 20.4191 36Z" fill="#FAA24B"/>
<path d="M9.94235 15.7075C11.5777 15.7075 12.9034 14.4085 12.9034 12.8061C12.9034 11.2037 11.5777 9.90472 9.94235 9.90472C8.30702 9.90472 6.98132 11.2037 6.98132 12.8061C6.98132 14.4085 8.30702 15.7075 9.94235 15.7075Z" fill="white"/>
<path d="M10.4708 13.6282C11.332 13.6282 12.0301 12.9441 12.0301 12.1002C12.0301 11.2564 11.332 10.5723 10.4708 10.5723C9.60963 10.5723 8.9115 11.2564 8.9115 12.1002C8.9115 12.9441 9.60963 13.6282 10.4708 13.6282Z" fill="#0B0C1E"/>
<path d="M16.4604 15.7075C18.0957 15.7075 19.4214 14.4085 19.4214 12.8061C19.4214 11.2037 18.0957 9.90472 16.4604 9.90472C14.8251 9.90472 13.4994 11.2037 13.4994 12.8061C13.4994 14.4085 14.8251 15.7075 16.4604 15.7075Z" fill="white"/>
<path d="M17.2318 13.8929C18.093 13.8929 18.7911 13.2088 18.7911 12.3649C18.7911 11.5211 18.093 10.837 17.2318 10.837C16.3706 10.837 15.6725 11.5211 15.6725 12.3649C15.6725 13.2088 16.3706 13.8929 17.2318 13.8929Z" fill="#0B0C1E"/>
</g>
<defs>
<clipPath id="clip0_201_383">
<rect width="28" height="36" fill="white"/>
</clipPath>
</defs>
</svg>
