<svg width="22" height="21" viewBox="0 0 22 21" fill="none" xmlns="http://www.w3.org/2000/svg">
<path d="M10.7469 20.8084C16.6822 20.8084 21.4938 16.1503 21.4938 10.4042C21.4938 4.65812 16.6822 0 10.7469 0C4.81155 0 0 4.65812 0 10.4042C0 16.1503 4.81155 20.8084 10.7469 20.8084Z" fill="#257D54"/>
<path d="M7.48739 13.3862C9.12272 13.3862 10.4484 12.0511 10.4484 10.4042C10.4484 8.75727 9.12272 7.42218 7.48739 7.42218C5.85206 7.42218 4.52637 8.75727 4.52637 10.4042C4.52637 12.0511 5.85206 13.3862 7.48739 13.3862Z" fill="white"/>
<path d="M8.01585 11.249C8.87703 11.249 9.57516 10.546 9.57516 9.67869C9.57516 8.81141 8.87703 8.10834 8.01585 8.10834C7.15467 8.10834 6.45654 8.81141 6.45654 9.67869C6.45654 10.546 7.15467 11.249 8.01585 11.249Z" fill="#0B0C1E"/>
<path d="M14.0055 13.3862C15.6408 13.3862 16.9665 12.0511 16.9665 10.4042C16.9665 8.75727 15.6408 7.42218 14.0055 7.42218C12.3701 7.42218 11.0444 8.75727 11.0444 10.4042C11.0444 12.0511 12.3701 13.3862 14.0055 13.3862Z" fill="white"/>
<path d="M14.7768 11.5211C15.638 11.5211 16.3361 10.818 16.3361 9.95073C16.3361 9.08344 15.638 8.38037 14.7768 8.38037C13.9157 8.38037 13.2175 9.08344 13.2175 9.95073C13.2175 10.818 13.9157 11.5211 14.7768 11.5211Z" fill="#0B0C1E"/>
</svg>
