<svg width="23" height="23" viewBox="0 0 23 23" fill="none" xmlns="http://www.w3.org/2000/svg">
<path d="M20.9566 11.5056L19.7535 11.0307L20.9531 10.545C22.5687 9.89109 23.3297 8.09759 22.6521 6.53797C21.9746 4.97836 20.1156 4.24449 18.5001 4.89841L17.3004 5.38407L17.7928 4.22182C18.4566 2.65743 17.6797 0.868706 16.0584 0.229108C14.4371 -0.411682 12.585 0.337697 11.9212 1.90328L11.4287 3.06553L10.926 1.90805C10.2484 0.348436 8.38948 -0.38543 6.77389 0.268487C5.1583 0.922403 4.39735 2.7159 5.07489 4.27552L5.57762 5.433L4.3745 4.95807C2.7532 4.31728 0.901094 5.06666 0.237263 6.63224C-0.426569 8.19663 0.350377 9.98536 1.97168 10.625L3.1748 11.0999L1.97511 11.5855C0.359517 12.2395 -0.401432 14.033 0.27611 15.5926C0.953652 17.1522 2.81261 17.8861 4.4282 17.2321L5.62789 16.7465L5.13545 17.9087C4.47162 19.4731 5.24856 21.2618 6.86986 21.9014C8.49117 22.541 10.3433 21.7928 11.0071 20.2273L11.4995 19.065L12.0023 20.2225C12.6798 21.7821 14.5388 22.516 16.1544 21.8621C17.77 21.2081 18.5309 19.4146 17.8534 17.855L17.3506 16.6975L18.5538 17.1725C20.1751 17.8133 22.0272 17.0639 22.691 15.4983C23.3548 13.9339 22.5779 12.1452 20.9566 11.5056Z" fill="#257D54"/>
<path d="M8.32085 14.0461C9.89778 14.0461 11.1761 12.711 11.1761 11.0641C11.1761 9.41718 9.89778 8.08209 8.32085 8.08209C6.74393 8.08209 5.46558 9.41718 5.46558 11.0641C5.46558 12.711 6.74393 14.0461 8.32085 14.0461Z" fill="white"/>
<path d="M8.8304 11.909C9.66083 11.909 10.334 11.2059 10.334 10.3386C10.334 9.47132 9.66083 8.76825 8.8304 8.76825C7.99998 8.76825 7.32678 9.47132 7.32678 10.3386C7.32678 11.2059 7.99998 11.909 8.8304 11.909Z" fill="#0B0C1E"/>
<path d="M14.6061 14.0461C16.1831 14.0461 17.4614 12.711 17.4614 11.0641C17.4614 9.41718 16.1831 8.08209 14.6061 8.08209C13.0292 8.08209 11.7509 9.41718 11.7509 11.0641C11.7509 12.711 13.0292 14.0461 14.6061 14.0461Z" fill="white"/>
<path d="M15.3499 12.181C16.1804 12.181 16.8535 11.4779 16.8535 10.6106C16.8535 9.74336 16.1804 9.04028 15.3499 9.04028C14.5195 9.04028 13.8463 9.74336 13.8463 10.6106C13.8463 11.4779 14.5195 12.181 15.3499 12.181Z" fill="#0B0C1E"/>
</svg>
