<svg width="27" height="36" viewBox="0 0 27 36" fill="none" xmlns="http://www.w3.org/2000/svg">
<g clip-path="url(#clip0_201_498)">
<path d="M24.2761 9.74335L19.7082 8.3176L16.8369 7.34698L15.5172 3.33215L12.1661 2.1897L8.9806 3.9115L6.04991 5.24552L2.45883 6.61438L4.85022 11.2631L1.25342 13.7907L4.95076 16.1011L3.52598 20.3238L5.54376 23.4214L10.2066 20.9391L12.55 21.5754L15.1185 21.7844L18.4353 22.0642L20.8484 19.9546L23.9459 17.528L22.2218 13.7953L24.2761 9.74335Z" fill="#0B0C1E"/>
<path d="M9.58733 15.7075C11.1643 15.7075 12.4426 14.4085 12.4426 12.8061C12.4426 11.2037 11.1643 9.90472 9.58733 9.90472C8.01041 9.90472 6.73206 11.2037 6.73206 12.8061C6.73206 14.4085 8.01041 15.7075 9.58733 15.7075Z" fill="white"/>
<path d="M10.0969 13.6282C10.9273 13.6282 11.6005 12.9441 11.6005 12.1002C11.6005 11.2564 10.9273 10.5723 10.0969 10.5723C9.26645 10.5723 8.59326 11.2564 8.59326 12.1002C8.59326 12.9441 9.26645 13.6282 10.0969 13.6282Z" fill="#262626"/>
<path d="M15.8725 15.7075C17.4494 15.7075 18.7278 14.4085 18.7278 12.8061C18.7278 11.2037 17.4494 9.90472 15.8725 9.90472C14.2956 9.90472 13.0172 11.2037 13.0172 12.8061C13.0172 14.4085 14.2956 15.7075 15.8725 15.7075Z" fill="white"/>
<path d="M16.6163 13.8929C17.4467 13.8929 18.1199 13.2088 18.1199 12.3649C18.1199 11.5211 17.4467 10.837 16.6163 10.837C15.7859 10.837 15.1127 11.5211 15.1127 12.3649C15.1127 13.2088 15.7859 13.8929 16.6163 13.8929Z" fill="#262626"/>
</g>
<defs>
<clipPath id="clip0_201_498">
<rect width="27" height="36" fill="white"/>
</clipPath>
</defs>
</svg>
