<svg width="27" height="26" viewBox="0 0 27 26" fill="none" xmlns="http://www.w3.org/2000/svg">
<path d="M26.1374 8.10398C18.1015 9.27545 16.9604 8.12952 18.9167 0.426097C14.189 6.87213 12.5586 6.76183 8.27049 0C9.46604 7.87409 8.29656 8.99216 0.434853 7.0753C7.01333 11.7078 6.90077 13.3054 0 17.5071C8.03588 16.3357 9.17693 17.4816 7.22068 25.185C11.9484 18.739 13.5788 18.8493 17.8669 25.6111C16.6713 17.737 17.8408 16.619 25.7025 18.5358C19.124 13.9033 19.2366 12.3057 26.1374 8.10398Z" fill="#257D54"/>
<path d="M9.80966 15.7075C11.445 15.7075 12.7707 14.4085 12.7707 12.8061C12.7707 11.2037 11.445 9.90472 9.80966 9.90472C8.17433 9.90472 6.84863 11.2037 6.84863 12.8061C6.84863 14.4085 8.17433 15.7075 9.80966 15.7075Z" fill="white"/>
<path d="M10.3381 13.6282C11.1993 13.6282 11.8974 12.9441 11.8974 12.1002C11.8974 11.2564 11.1993 10.5723 10.3381 10.5723C9.47693 10.5723 8.77881 11.2564 8.77881 12.1002C8.77881 12.9441 9.47693 13.6282 10.3381 13.6282Z" fill="#0B0C1E"/>
<path d="M16.3277 15.7075C17.9631 15.7075 19.2888 14.4085 19.2888 12.8061C19.2888 11.2037 17.9631 9.90472 16.3277 9.90472C14.6924 9.90472 13.3667 11.2037 13.3667 12.8061C13.3667 14.4085 14.6924 15.7075 16.3277 15.7075Z" fill="white"/>
<path d="M17.0991 13.8929C17.9603 13.8929 18.6584 13.2088 18.6584 12.3649C18.6584 11.5211 17.9603 10.837 17.0991 10.837C16.2379 10.837 15.5398 11.5211 15.5398 12.3649C15.5398 13.2088 16.2379 13.8929 17.0991 13.8929Z" fill="#0B0C1E"/>
</svg>
