<svg width="22" height="23" viewBox="0 0 22 23" fill="none" xmlns="http://www.w3.org/2000/svg">
<path d="M16.2747 5.66569C16.2747 2.53691 13.8456 0 10.8498 0C7.854 0 5.42491 2.53691 5.42491 5.66569C2.4291 5.66569 0 8.2026 0 11.3314C0 14.4602 2.4291 16.9971 5.42491 16.9971C5.42491 20.1258 7.854 22.6628 10.8498 22.6628C13.8456 22.6628 16.2747 20.1258 16.2747 16.9971C19.2705 16.9971 21.6996 14.4602 21.6996 11.3314C21.6996 8.2026 19.2705 5.66569 16.2747 5.66569Z" fill="#257D54"/>
<path d="M7.70672 14.3134C9.28364 14.3134 10.562 12.9783 10.562 11.3314C10.562 9.68445 9.28364 8.34937 7.70672 8.34937C6.12979 8.34937 4.85144 9.68445 4.85144 11.3314C4.85144 12.9783 6.12979 14.3134 7.70672 14.3134Z" fill="white"/>
<path d="M8.21626 12.1762C9.04669 12.1762 9.71988 11.4732 9.71988 10.6059C9.71988 9.73859 9.04669 9.03552 8.21626 9.03552C7.38584 9.03552 6.71265 9.73859 6.71265 10.6059C6.71265 11.4732 7.38584 12.1762 8.21626 12.1762Z" fill="#0B0C1E"/>
<path d="M13.992 14.3134C15.5689 14.3134 16.8473 12.9783 16.8473 11.3314C16.8473 9.68445 15.5689 8.34937 13.992 8.34937C12.4151 8.34937 11.1367 9.68445 11.1367 11.3314C11.1367 12.9783 12.4151 14.3134 13.992 14.3134Z" fill="white"/>
<path d="M14.7358 12.4483C15.5662 12.4483 16.2394 11.7452 16.2394 10.8779C16.2394 10.0106 15.5662 9.30756 14.7358 9.30756C13.9054 9.30756 13.2322 10.0106 13.2322 10.8779C13.2322 11.7452 13.9054 12.4483 14.7358 12.4483Z" fill="#0B0C1E"/>
</svg>
