<svg width="609" height="631" viewBox="0 0 609 631" fill="none" xmlns="http://www.w3.org/2000/svg">
<path d="M608.992 315.508L596.158 323.568C585.996 329.951 584.937 344.844 594.08 352.714L605.635 362.656L591.766 368.659C580.812 373.397 577.63 387.951 585.531 397.141L595.541 408.784L580.964 412.557C569.446 415.539 564.202 429.42 570.687 439.749L578.901 452.824L563.95 454.279C552.136 455.434 544.942 468.35 549.868 479.566L556.102 493.755L541.121 492.885C529.269 492.197 520.301 503.864 523.575 515.72L527.708 530.708L513.016 527.536C501.392 525.029 490.857 535.185 492.402 547.413L494.351 562.868L480.268 557.466C469.131 553.195 457.271 561.61 457.051 573.941L456.769 589.531L443.607 582.001C433.209 576.053 420.276 582.539 418.281 594.696L415.761 610.079L403.833 600.588C394.417 593.09 380.692 597.488 376.969 609.186L372.25 624.008L361.836 612.769C353.607 603.886 339.395 606.093 334.028 617.087L327.238 631L318.56 618.305C311.686 608.244 297.306 608.244 290.432 618.305L281.754 631L274.964 617.087C269.598 606.093 255.385 603.878 247.156 612.769L236.743 624.008L232.023 609.186C228.301 597.48 214.576 593.09 205.159 600.588L193.231 610.079L190.711 594.696C188.717 582.539 175.783 576.061 165.385 582.001L152.223 589.531L151.942 573.941C151.721 561.61 139.853 553.187 128.724 557.466L114.641 562.868L116.59 547.413C118.135 535.185 107.6 525.021 95.976 527.536L81.2842 530.708L85.4177 515.72C88.691 503.864 79.7237 492.197 67.8714 492.885L52.8903 493.755L59.1248 479.566C64.0576 468.35 56.864 455.426 45.042 454.279L30.0915 452.824L38.3051 439.749C44.7908 429.428 39.5383 415.539 28.0285 412.557L13.451 408.784L23.4611 397.141C31.3627 387.943 28.1808 373.397 17.2267 368.659L3.35703 362.656L14.9125 352.714C24.0549 344.844 22.9968 329.951 12.8344 323.568L0 315.508L12.8344 307.448C22.9968 301.065 24.0549 286.172 14.9125 278.302L3.35703 268.36L17.2267 262.356C28.1808 257.619 31.3627 243.065 23.4611 233.874L13.451 222.232L28.0285 218.459C39.5459 215.477 44.7908 201.596 38.3051 191.266L30.0915 178.192L45.042 176.737C56.8563 175.582 64.05 162.666 59.1248 151.45L52.8903 137.261L67.8714 138.131C79.7237 138.819 88.691 127.152 85.4177 115.296L81.2842 100.308L95.976 103.479C107.6 105.987 118.135 95.8309 116.59 83.6029L114.641 68.1478L128.724 73.55C139.861 77.8211 151.721 69.4054 151.942 57.0746L152.223 41.4851L165.385 49.0149C175.783 54.9628 188.717 48.477 190.711 36.3202L193.231 20.9363L205.159 30.4276C214.576 37.9258 228.301 33.5282 232.023 21.8301L236.743 7.00777L247.156 18.2471C255.385 27.1294 269.598 24.9227 274.964 13.9285L281.762 0L290.44 12.6947C297.314 22.7555 311.694 22.7555 318.568 12.6947L327.246 0L334.036 13.9127C339.402 24.9069 353.615 27.1215 361.844 18.2313L372.257 6.99195L376.977 21.8143C380.699 33.5202 394.424 37.91 403.841 30.4118L415.769 20.9205L418.289 36.3044C420.283 48.4612 433.217 54.939 443.615 48.999L456.777 41.4692L457.058 57.0588C457.279 69.3896 469.147 77.8132 480.276 73.5341L494.359 68.132L492.41 83.587C490.865 95.8151 501.4 105.979 513.024 103.463L527.716 100.292L523.582 115.28C520.309 127.136 529.276 138.803 541.129 138.115L556.11 137.245L549.875 151.434C544.942 162.65 552.136 175.574 563.958 176.721L578.909 178.176L570.695 191.25C564.209 201.572 569.462 215.461 580.971 218.443L595.549 222.216L585.539 233.859C577.637 243.057 580.819 257.603 591.773 262.341L605.643 268.344L594.087 278.286C584.945 286.156 586.003 301.049 596.166 307.432L609 315.492L608.992 315.508Z" fill="black"/>
</svg>
