<svg width="117" height="117" viewBox="0 0 117 117" fill="none" xmlns="http://www.w3.org/2000/svg">
<path d="M112.605 72.3012C113.809 81.3551 109.423 90.2261 101.675 94.8174C98.0655 104.319 88.3605 110.532 77.8089 109.3L75.9398 109.082L74.6046 110.407C67.0627 117.893 55.5955 118.999 46.8924 113.752C37.964 114.924 29.0401 110.654 24.4011 102.789C13.8714 99.8535 6.73165 89.6496 7.94257 78.4566C-0.605538 71.1365 -2.39559 58.8111 3.26268 49.4528C0.856926 38.7836 6.45378 27.6594 16.8811 23.4236C19.2723 12.4208 29.2726 5.00418 40.1914 5.55432C48.4411 -1.6209 60.8867 -1.96182 69.5562 5.2178C80.3726 2.1101 91.6409 7.40666 96.331 17.2858C106.557 21.1528 112.753 31.9552 110.543 42.996C118.404 51.0535 119.081 63.4902 112.608 72.3027L112.605 72.3012Z" fill="#91DEDA"/>
</svg>
