<svg width="77" height="77" viewBox="0 0 77 77" fill="none" xmlns="http://www.w3.org/2000/svg">
<path d="M73.5917 36.5609L72.6379 36.5166L73.5802 36.3616C75.5282 36.0419 76.8478 34.2025 76.5282 32.2533C76.2087 30.3041 74.3704 28.9838 72.4223 29.3035L71.48 29.4586L72.3694 29.1109C74.2087 28.3925 75.1172 26.3191 74.3992 24.4787C73.6812 22.6384 71.609 21.7293 69.7697 22.4477L68.8803 22.7953L69.6782 22.2705C71.3279 21.1852 71.7861 18.9683 70.7014 17.3176C69.6166 15.667 67.401 15.2086 65.7513 16.2939L64.9534 16.8188L65.6252 16.1398C67.0131 14.7357 67.0006 12.4707 65.5964 11.082C64.193 9.69328 61.9293 9.7058 60.5414 11.1109L59.8705 11.7898L60.3864 10.9857C61.4519 9.32347 60.9697 7.11043 59.3075 6.04435C57.6462 4.97827 55.4344 5.46075 54.369 7.12391L53.8531 7.92804L54.1899 7.03435C54.8868 5.18629 53.9551 3.12251 52.1081 2.42527C50.2611 1.72804 48.1985 2.66025 47.5016 4.50831L47.1648 5.40201L47.3091 4.45727C47.6065 2.50424 46.2668 0.680256 44.3149 0.381716C42.3629 0.0841386 40.54 1.42468 40.2416 3.37771L40.0972 4.32245L40.0424 3.36904C39.9278 1.39675 38.2377 -0.108468 36.2666 0.00613295C34.2954 0.120734 32.791 1.81182 32.9056 3.78411L32.9604 4.73751L32.7082 3.81589C32.1866 1.91101 30.2202 0.790042 28.3164 1.31201C26.4126 1.83397 25.2923 3.80145 25.814 5.70632L26.0661 6.62795L25.6282 5.77951C24.7225 4.02487 22.5656 3.33726 20.8119 4.24348C19.0583 5.14969 18.3711 7.30785 19.2768 9.06249L19.7147 9.91093L19.1093 9.17228C17.8581 7.64395 15.6059 7.42052 14.0794 8.6715C12.5519 9.92344 12.3286 12.1769 13.5789 13.7043L14.1843 14.443L13.4393 13.8459C11.8984 12.6113 9.64905 12.8607 8.41514 14.4025C7.18124 15.9443 7.43052 18.1949 8.97146 19.4295L9.71642 20.0266L8.86366 19.5981C7.09943 18.7111 4.95116 19.4228 4.06471 21.188C3.17826 22.9533 3.88954 25.1028 5.65377 25.9897L6.50654 26.4183L5.58255 26.1765C3.67298 25.6758 1.71914 26.8189 1.21865 28.7305C0.718153 30.6412 1.86062 32.5961 3.77115 33.0969L4.69514 33.3386L3.74132 33.2943C1.76919 33.2019 0.0963885 34.7264 0.00399 36.6996C-0.0884085 38.6729 1.4352 40.3466 3.40734 40.4391L4.36116 40.4834L3.41888 40.6384C1.47082 40.9581 0.15125 42.7975 0.470795 44.7467C0.79034 46.6959 2.62868 48.0162 4.57675 47.6965L5.51903 47.5414L4.62969 47.8891C2.79038 48.6075 1.8818 50.6809 2.59981 52.5213C3.31782 54.3616 5.39005 55.2707 7.22936 54.5523L8.1187 54.2047L7.3208 54.7295C5.6711 55.8149 5.21296 58.0318 6.29768 59.6824C7.3824 61.333 9.59804 61.7914 11.2477 60.7061L12.0456 60.1812L11.3748 60.8602C9.98688 62.2643 9.99939 64.5293 11.4037 65.918C12.807 67.3067 15.0707 67.2942 16.4586 65.8891L17.1295 65.2102L16.6136 66.0143C15.5481 67.6765 16.0303 69.8896 17.6925 70.9557C19.3538 72.0217 21.5656 71.5392 22.631 69.8761L23.1469 69.072L22.8101 69.9657C22.1132 71.8137 23.0449 73.8775 24.8919 74.5747C26.7389 75.272 28.8015 74.3398 29.4984 72.4917L29.8352 71.598L29.6909 72.5427C29.3935 74.4958 30.7332 76.3197 32.6852 76.6183C34.6371 76.9159 36.46 75.5753 36.7584 73.6223L36.9028 72.6776L36.9576 73.631C37.0722 75.6033 38.7623 77.1085 40.7334 76.9939C42.7046 76.8793 44.209 75.1882 44.0944 73.2159L44.0396 72.2625L44.2918 73.1841C44.8134 75.089 46.7798 76.21 48.6836 75.688C50.5874 75.166 51.7077 73.1986 51.186 71.2937L50.9339 70.3721L51.3718 71.2205C52.2775 72.9751 54.4344 73.6627 56.1881 72.7565C57.9417 71.8503 58.6289 69.6922 57.7232 67.9375L57.2853 67.0891L57.8907 67.8277C59.1419 69.3561 61.3941 69.5795 62.9206 68.3285C64.4481 67.0766 64.6714 64.8231 63.4211 63.2957L62.8157 62.557L63.5607 63.1541C65.1016 64.3887 67.351 64.1393 68.5849 62.5975C69.8188 61.0557 69.5695 58.8051 68.0285 57.5705L67.2836 56.9734L68.1363 57.4019C69.9006 58.2889 72.0488 57.5772 72.9353 55.812C73.8217 54.0467 73.1105 51.8972 71.3462 51.0103L70.4935 50.5817L71.4174 50.8235C73.327 51.3242 75.2809 50.1811 75.7814 48.2695C76.2818 46.3588 75.1394 44.4039 73.2289 43.9031L72.3049 43.6614L73.2587 43.7057C75.2308 43.7981 76.9036 42.2736 76.996 40.3004C77.0884 38.3271 75.5648 36.6534 73.5927 36.5609H73.5917Z" fill="#257D54"/>
</svg>
