<svg width="523" height="523" viewBox="0 0 523 523" fill="none" xmlns="http://www.w3.org/2000/svg">
<path d="M499.85 248.329L493.372 248.029L499.772 246.975C513.003 244.804 521.966 232.31 519.796 219.071C517.625 205.832 505.139 196.864 491.907 199.036L485.507 200.089L491.548 197.727C504.041 192.848 510.212 178.765 505.335 166.265C500.458 153.764 486.383 147.59 473.89 152.469L467.85 154.831L473.269 151.266C484.474 143.894 487.586 128.836 480.218 117.625C472.851 106.413 457.802 103.3 446.597 110.672L441.177 114.237L445.74 109.625C455.167 100.088 455.082 84.7034 445.544 75.2711C436.013 65.8388 420.637 65.9238 411.21 75.4673L406.653 80.0788L410.157 74.617C417.394 63.327 414.119 48.2955 402.829 41.0545C391.545 33.8135 376.522 37.0906 369.285 48.3871L365.781 53.8489L368.069 47.7787C372.802 35.2263 366.474 21.2087 353.929 16.4729C341.384 11.7372 327.374 18.069 322.641 30.6214L320.353 36.6915L321.333 30.2747C323.354 17.0093 314.254 4.62044 300.996 2.59269C287.738 0.571487 275.356 9.67673 273.329 22.9421L272.349 29.359L271.976 22.8832C271.198 9.48703 259.719 -0.736737 246.33 0.0416563C232.941 0.82005 222.723 12.3063 223.501 25.7025L223.874 32.1782L222.161 25.9183C218.618 12.98 205.262 5.36613 192.331 8.91141C179.4 12.4567 171.791 25.8202 175.334 38.7585L177.047 45.0184L174.072 39.2557C167.92 27.3377 153.27 22.6674 141.359 28.8226C129.448 34.9778 124.78 49.6364 130.932 61.5543L133.906 67.3171L129.794 62.3C121.296 51.9193 105.998 50.4017 95.63 58.8986C85.2551 67.4021 83.7384 82.7083 92.2305 93.0825L96.3425 98.0996L91.2826 94.0441C80.8162 85.6584 65.5383 87.3525 57.1574 97.8249C48.7765 108.297 50.4696 123.584 60.936 131.969L65.9959 136.025L60.2038 133.114C48.2208 127.09 33.6293 131.924 27.6084 143.914C21.5874 155.903 26.4186 170.503 38.4016 176.528L44.1937 179.438L37.9178 177.797C24.9476 174.395 11.6767 182.16 8.27729 195.144C4.87785 208.121 12.6377 221.4 25.6145 224.801L31.8904 226.443L25.4118 226.142C12.0167 225.514 0.654691 235.869 0.0271009 249.271C-0.600489 262.674 9.74821 274.043 23.1433 274.671L29.6219 274.971L23.2218 276.025C9.99009 278.196 1.02732 290.69 3.19774 303.929C5.36815 317.168 17.8546 326.136 31.0863 323.964L37.4864 322.911L31.4458 325.273C18.9529 330.152 12.7816 344.235 17.6585 356.735C22.5354 369.236 36.6104 375.41 49.1033 370.531L55.1439 368.169L49.7244 371.734C38.5193 379.106 35.4075 394.164 42.7751 405.375C50.1428 416.587 65.1918 419.7 76.3969 412.328L81.8164 408.763L77.2599 413.375C67.833 422.912 67.9179 438.297 77.456 447.729C86.9875 457.161 102.363 457.076 111.79 447.533L116.347 442.921L112.843 448.383C105.606 459.673 108.881 474.705 120.171 481.946C131.455 489.187 146.478 485.909 153.715 474.613L157.219 469.151L154.931 475.221C150.198 487.774 156.526 501.791 169.071 506.527C181.616 511.263 195.626 504.931 200.359 492.379L202.647 486.308L201.667 492.725C199.646 505.991 208.747 518.38 222.004 520.407C235.262 522.429 247.644 513.323 249.671 500.058L250.651 493.641L251.024 500.117C251.802 513.513 263.281 523.737 276.67 522.958C290.059 522.18 300.277 510.694 299.499 497.298L299.126 490.822L300.839 497.082C304.382 510.02 317.738 517.634 330.669 514.089C343.6 510.543 351.209 497.18 347.666 484.241L345.953 477.982L348.928 483.744C355.08 495.662 369.73 500.333 381.641 494.177C393.552 488.022 398.22 473.364 392.068 461.446L389.094 455.683L393.206 460.7C401.704 471.081 417.002 472.598 427.37 464.101C437.745 455.598 439.262 440.292 430.77 429.918L426.657 424.9L431.717 428.956C442.184 437.342 457.462 435.648 465.843 425.175C474.224 414.703 472.53 399.416 462.064 391.031L457.004 386.975L462.796 389.886C474.779 395.91 489.371 391.076 495.392 379.086C501.413 367.097 496.581 352.497 484.598 346.472L478.806 343.562L485.082 345.203C498.052 348.605 511.323 340.84 514.723 327.856C518.122 314.879 510.362 301.6 497.386 298.199L491.11 296.557L497.588 296.858C510.983 297.486 522.345 287.131 522.973 273.729C523.6 260.326 513.252 248.957 499.857 248.329H499.85Z" fill="black"/>
</svg>
