<svg width="305" height="304" viewBox="0 0 305 304" fill="none" xmlns="http://www.w3.org/2000/svg">
<path d="M292.67 187.832C295.8 211.352 284.4 234.392 264.26 246.322C254.88 271.002 229.66 287.142 202.23 283.942L197.37 283.372L193.9 286.812C174.3 306.262 144.5 309.132 121.88 295.502C98.6702 298.552 75.4801 287.452 63.4201 267.022C36.0501 259.392 17.5001 232.892 20.6501 203.812C-1.56985 184.792 -6.22985 152.782 8.48015 128.472C2.23015 100.752 16.7701 71.8616 43.8701 60.8516C50.0801 32.2716 76.0801 13.0016 104.45 14.4316C125.89 -4.20838 158.24 -5.09838 180.77 13.5516C208.88 5.48162 238.17 19.2416 250.35 44.9016C276.93 54.9516 293.03 83.0116 287.29 111.692C307.72 132.622 309.48 164.932 292.66 187.822L292.67 187.832Z" fill="#48A09D"/>
<path d="M209.766 75.4433C210.105 60.2647 198.075 47.6852 182.897 47.346C167.718 47.0069 155.139 59.0366 154.8 74.2151C154.46 89.3936 166.49 101.973 181.669 102.312C196.847 102.651 209.427 90.6218 209.766 75.4433Z" fill="white"/>
<path d="M192.005 68.3697C192.183 60.3747 185.847 53.7485 177.852 53.5699C169.857 53.3913 163.231 59.7277 163.052 67.7228C162.873 75.7179 169.21 82.344 177.205 82.5227C185.2 82.7013 191.826 76.3648 192.005 68.3697Z" fill="#262626"/>
<path d="M149.285 74.0878C149.625 58.9093 137.595 46.3297 122.416 45.9906C107.238 45.6514 94.6583 57.6811 94.3192 72.8596C93.98 88.0381 106.01 100.618 121.188 100.957C136.367 101.296 148.946 89.2663 149.285 74.0878Z" fill="white"/>
<path d="M129.212 69.4684C129.39 61.4733 123.054 54.8472 115.059 54.6685C107.064 54.4899 100.438 60.8264 100.259 68.8215C100.08 76.8165 106.417 83.4427 114.412 83.6213C122.407 83.8 129.033 77.4635 129.212 69.4684Z" fill="#262626"/>
</svg>
