<svg width="305" height="304" viewBox="0 0 305 304" fill="none" xmlns="http://www.w3.org/2000/svg">
<path d="M290.615 144.305L286.845 144.125L290.565 143.515C298.255 142.255 303.475 134.995 302.205 127.295C300.945 119.605 293.685 114.385 285.985 115.655L282.265 116.265L285.775 114.895C293.035 112.065 296.625 103.875 293.795 96.615C290.965 89.355 282.775 85.765 275.515 88.595L272.005 89.965L275.155 87.895C281.665 83.615 283.475 74.855 279.195 68.345C274.915 61.835 266.155 60.025 259.645 64.305L256.495 66.375L259.145 63.695C264.625 58.155 264.575 49.215 259.035 43.735C253.495 38.255 244.555 38.305 239.075 43.845L236.425 46.525L238.465 43.355C242.675 36.795 240.765 28.065 234.205 23.855C227.645 19.645 218.915 21.555 214.705 28.115L212.665 31.285L213.995 27.755C216.745 20.465 213.065 12.315 205.775 9.56497C198.485 6.81497 190.335 10.495 187.585 17.785L186.255 21.315L186.825 17.585C188.005 9.87497 182.705 2.67497 175.005 1.50497C167.295 0.324974 160.095 5.62497 158.925 13.325L158.355 17.055L158.135 13.295C157.685 5.51497 151.005 -0.435026 143.225 0.0249739C135.445 0.474974 129.495 7.15497 129.955 14.935L130.175 18.695L129.175 15.055C127.115 7.53497 119.345 3.11497 111.835 5.17497C104.315 7.23497 99.8954 15.005 101.955 22.515L102.955 26.155L101.225 22.805C97.6454 15.875 89.1354 13.165 82.2054 16.745C75.2754 20.325 72.5654 28.835 76.1454 35.765L77.8754 39.115L75.4854 36.195C70.5454 30.165 61.6554 29.285 55.6254 34.225C49.5954 39.165 48.7154 48.055 53.6554 54.085L56.0454 57.005L53.1054 54.645C47.0154 49.775 38.1354 50.755 33.2654 56.845C28.3954 62.935 29.3754 71.815 35.4654 76.685L38.4054 79.045L35.0354 77.355C28.0654 73.855 19.5854 76.665 16.0854 83.635C12.5854 90.605 15.3954 99.085 22.3654 102.585L25.7354 104.275L22.0854 103.315C14.5454 101.335 6.82536 105.855 4.85536 113.395C2.87536 120.935 7.39536 128.655 14.9354 130.625L18.5854 131.585L14.8154 131.405C7.02536 131.045 0.415364 137.055 0.0553642 144.845H0.0153642C-0.344636 152.635 5.66536 159.245 13.4554 159.605L17.2254 159.785L13.5054 160.395C5.81536 161.655 0.595364 168.915 1.86536 176.615C3.12536 184.305 10.3854 189.525 18.0854 188.255L21.8054 187.645L18.2954 189.015C11.0354 191.845 7.44536 200.035 10.2754 207.295C13.1054 214.555 21.2954 218.145 28.5554 215.315L32.0654 213.945L28.9154 216.015C22.4054 220.295 20.5954 229.055 24.8754 235.565C29.1554 242.075 37.9154 243.885 44.4254 239.605L47.5754 237.535L44.9254 240.215C39.4454 245.755 39.4954 254.695 45.0354 260.175C50.5754 265.655 59.5154 265.605 64.9954 260.065L67.6454 257.385L65.6054 260.555C61.3954 267.115 63.3054 275.845 69.8654 280.055C76.4254 284.265 85.1554 282.355 89.3654 275.795L91.4054 272.625L90.0754 276.155C87.3254 283.445 91.0054 291.595 98.2954 294.345C105.585 297.095 113.735 293.415 116.485 286.125L117.815 282.595L117.245 286.325C116.065 294.035 121.365 301.235 129.065 302.405C136.775 303.585 143.975 298.285 145.145 290.585L145.715 286.855L145.935 290.615C146.385 298.395 153.065 304.345 160.845 303.885C168.625 303.435 174.575 296.755 174.115 288.975L173.895 285.215L174.895 288.855C176.955 296.375 184.725 300.795 192.235 298.735C199.755 296.675 204.175 288.905 202.115 281.395L201.115 277.755L202.845 281.105C206.425 288.035 214.935 290.745 221.865 287.165C228.795 283.585 231.505 275.075 227.925 268.145L226.195 264.795L228.585 267.715C233.525 273.745 242.415 274.625 248.445 269.685C254.475 264.745 255.355 255.855 250.415 249.825L248.025 246.905L250.965 249.265C257.055 254.135 265.935 253.155 270.805 247.065C275.675 240.975 274.695 232.095 268.605 227.225L265.665 224.865L269.035 226.555C276.005 230.055 284.485 227.245 287.985 220.275C291.485 213.305 288.675 204.825 281.705 201.325L278.335 199.635L281.985 200.595C289.525 202.575 297.245 198.055 299.215 190.515C301.195 182.975 296.675 175.255 289.135 173.285L285.485 172.325L289.255 172.505C297.045 172.865 303.655 166.855 304.015 159.065C304.375 151.275 298.365 144.665 290.575 144.305H290.615Z" fill="#D35400"/>
<path d="M209.741 75.4267C210.081 60.2481 198.051 47.6686 182.872 47.3294C167.694 46.9903 155.114 59.02 154.775 74.1985C154.436 89.377 166.466 101.957 181.644 102.296C196.823 102.635 209.402 90.6052 209.741 75.4267Z" fill="white"/>
<path d="M191.98 68.3531C192.159 60.358 185.822 53.7319 177.827 53.5533C169.832 53.3747 163.206 59.7111 163.028 67.7062C162.849 75.7013 169.185 82.3274 177.18 82.5061C185.176 82.6847 191.802 76.3482 191.98 68.3531Z" fill="#262626"/>
<path d="M149.261 74.0712C149.6 58.8927 137.57 46.3131 122.392 45.974C107.213 45.6348 94.6339 57.6645 94.2947 72.843C93.9556 88.0215 105.985 100.601 121.164 100.94C136.342 101.279 148.922 89.2497 149.261 74.0712Z" fill="white"/>
<path d="M129.197 69.4518C129.376 61.4567 123.039 54.8306 115.044 54.6519C107.049 54.4733 100.423 60.8098 100.244 68.8049C100.066 76.7999 106.402 83.4261 114.397 83.6047C122.392 83.7834 129.018 77.4469 129.197 69.4518Z" fill="#262626"/>
</svg>
