<svg width="774" height="161" viewBox="0 0 774 161" fill="none" xmlns="http://www.w3.org/2000/svg">
<g clip-path="url(#clip0_2674_38865)">
<path d="M773.29 87.68C754.6 72.34 714.91 78.94 723.57 131.63L686.64 120.82V14.87C686.64 6.66 679.98 0 671.77 0H101.51C93.3 0 86.64 6.66 86.64 14.87V120.82L49.71 131.63C58.38 78.94 18.69 72.34 0 87.68L19.77 160.85L86.64 133.96V139.85C86.64 148.06 93.3 154.72 101.51 154.72H671.78C679.99 154.72 686.65 148.06 686.65 139.85V133.96L753.52 160.85L773.29 87.68Z" fill="#D35400"/>
<path d="M773.29 87.68C754.6 72.34 714.91 78.94 723.57 131.63L686.64 120.82V14.87C686.64 6.66 679.98 0 671.77 0H101.51C93.3 0 86.64 6.66 86.64 14.87V120.82L49.71 131.63C58.38 78.94 18.69 72.34 0 87.68L19.77 160.85L86.64 133.96V139.85C86.64 148.06 93.3 154.72 101.51 154.72H671.78C679.99 154.72 686.65 148.06 686.65 139.85V133.96L753.52 160.85L773.29 87.68Z" fill="#D35400"/>
<path d="M436.931 39.3352C437.226 26.1057 426.741 15.1415 413.512 14.8459C400.282 14.5503 389.318 25.0353 389.023 38.2647C388.727 51.4941 399.212 62.4584 412.441 62.754C425.671 63.0496 436.635 52.5646 436.931 39.3352Z" fill="white"/>
<path d="M421.452 33.1687C421.608 26.2006 416.085 20.4256 409.117 20.2699C402.149 20.1142 396.374 25.6367 396.218 32.6048C396.063 39.5729 401.585 45.3479 408.553 45.5036C415.521 45.6593 421.296 40.1367 421.452 33.1687Z" fill="#262626"/>
<path d="M384.213 38.1555C384.508 24.926 374.023 13.9618 360.794 13.6662C347.565 13.3706 336.6 23.8556 336.305 37.085C336.009 50.3145 346.494 61.2787 359.724 61.5743C372.953 61.8699 383.917 51.3849 384.213 38.1555Z" fill="white"/>
<path d="M366.719 34.1267C366.874 27.1586 361.352 21.3836 354.384 21.2279C347.416 21.0722 341.641 26.5947 341.485 33.5628C341.329 40.5309 346.852 46.3059 353.82 46.4616C360.788 46.6173 366.563 41.0948 366.719 34.1267Z" fill="#262626"/>
</g>
<defs>
<clipPath id="clip0_2674_38865">
<rect width="773.29" height="160.85" fill="white"/>
</clipPath>
</defs>
</svg>
