<svg width="242" height="334" viewBox="0 0 242 334" fill="none" xmlns="http://www.w3.org/2000/svg">
<g clip-path="url(#clip0_201_833)">
<path d="M199.184 122.798L188.4 118.511L199.153 114.127C213.633 108.224 220.454 92.0339 214.381 77.9552C208.308 63.8765 191.646 57.2519 177.166 63.1548L166.413 67.5389L170.827 57.0472C176.777 42.9255 169.813 26.7786 155.281 21.0049C140.75 15.2205 124.149 21.9852 118.199 36.1177L113.786 46.6094L109.28 36.1608C103.207 22.0821 86.5452 15.4575 72.0647 21.3604C57.5842 27.2633 50.7639 43.4533 56.8367 57.532L61.3426 67.9806L50.559 63.6934C36.0274 57.909 19.4271 64.6737 13.4772 78.8062C7.52726 92.928 14.491 109.075 29.0227 114.849L39.8062 119.136L29.0534 123.52C14.5729 129.423 7.75256 145.613 13.8253 159.691C19.8981 173.77 36.5599 180.395 51.0404 174.492L61.7932 170.108L57.3794 180.599C51.4295 194.721 58.3933 210.868 72.9249 216.642C87.4566 222.415 104.057 215.661 110.007 201.529L114.421 191.037L118.927 201.486C124.999 215.564 141.661 222.189 156.142 216.286C170.622 210.383 177.442 194.193 171.37 180.115L166.864 169.666L177.647 173.953C192.179 179.738 208.779 172.973 214.729 158.84C220.679 144.719 213.715 128.572 199.184 122.798Z" fill="#91DEDA"/>
<path d="M97.994 161.652L78.5365 334H0.522242C-3.95298 310.453 20.5839 272.849 64.5067 295.685L94.4814 161.652H97.9838H97.994Z" fill="#91DEDA"/>
<path d="M176.48 334H100.893L120.391 161.652H123.904L121.231 295.685C169.7 272.493 186.383 310.884 176.48 334Z" fill="#91DEDA"/>
<path d="M85.9306 145.731C100.065 145.731 111.522 133.679 111.522 118.813C111.522 103.946 100.065 91.8939 85.9306 91.8939C71.7967 91.8939 60.3389 103.946 60.3389 118.813C60.3389 133.679 71.7967 145.731 85.9306 145.731Z" fill="white"/>
<path d="M90.4984 126.439C97.9414 126.439 103.975 120.092 103.975 112.263C103.975 104.434 97.9414 98.0876 90.4984 98.0876C83.0553 98.0876 77.0215 104.434 77.0215 112.263C77.0215 120.092 83.0553 126.439 90.4984 126.439Z" fill="black"/>
<path d="M142.266 145.731C156.399 145.731 167.857 133.679 167.857 118.813C167.857 103.946 156.399 91.8939 142.266 91.8939C128.132 91.8939 116.674 103.946 116.674 118.813C116.674 133.679 128.132 145.731 142.266 145.731Z" fill="white"/>
<path d="M148.932 128.895C156.375 128.895 162.409 122.548 162.409 114.719C162.409 106.89 156.375 100.544 148.932 100.544C141.489 100.544 135.455 106.89 135.455 114.719C135.455 122.548 141.489 128.895 148.932 128.895Z" fill="black"/>
</g>
<defs>
<clipPath id="clip0_201_833">
<rect width="242" height="334" fill="white"/>
</clipPath>
</defs>
</svg>
