<svg width="305" height="305" viewBox="0 0 305 305" fill="none" xmlns="http://www.w3.org/2000/svg">
<path d="M152.05 304.09C236.019 304.09 304.09 236.019 304.09 152.05C304.09 68.0804 236.019 0.00976562 152.05 0.00976562C68.0804 0.00976562 0.00976562 68.0804 0.00976562 152.05C0.00976562 236.019 68.0804 304.09 152.05 304.09Z" fill="#B91C5C"/>
<path d="M209.756 75.5136C210.095 60.3351 198.066 47.7555 182.887 47.4164C167.709 47.0772 155.129 59.1069 154.79 74.2854C154.451 89.4639 166.48 102.043 181.659 102.383C196.837 102.722 209.417 90.6921 209.756 75.5136Z" fill="white"/>
<path d="M191.995 68.4401C192.174 60.445 185.837 53.8189 177.842 53.6402C169.847 53.4616 163.221 59.7981 163.042 67.7931C162.864 75.7882 169.2 82.4143 177.195 82.593C185.19 82.7716 191.816 76.4352 191.995 68.4401Z" fill="#262626"/>
<path d="M149.276 74.1581C149.615 58.9796 137.585 46.4 122.407 46.0609C107.228 45.7217 94.6485 57.7514 94.3094 72.9299C93.9702 88.1085 106 100.688 121.178 101.027C136.357 101.366 148.937 89.3366 149.276 74.1581Z" fill="white"/>
<path d="M129.212 69.5387C129.39 61.5436 123.054 54.9175 115.059 54.7389C107.064 54.5602 100.438 60.8967 100.259 68.8918C100.08 76.8869 106.417 83.513 114.412 83.6916C122.407 83.8703 129.033 77.5338 129.212 69.5387Z" fill="#262626"/>
</svg>
