<svg width="305" height="304" viewBox="0 0 305 304" fill="none" xmlns="http://www.w3.org/2000/svg">
<path d="M304.07 151.62L297.66 155.49C292.59 158.56 292.06 165.71 296.62 169.49L302.39 174.27L295.46 177.15C289.99 179.43 288.4 186.42 292.35 190.84L297.35 196.44L290.07 198.25C284.32 199.68 281.7 206.35 284.94 211.32L289.04 217.6L281.58 218.3C275.68 218.85 272.09 225.06 274.55 230.45L277.66 237.27L270.18 236.85C264.26 236.52 259.79 242.12 261.42 247.82L263.48 255.02L256.15 253.5C250.35 252.29 245.09 257.18 245.86 263.05L246.83 270.48L239.8 267.88C234.24 265.83 228.32 269.87 228.21 275.8L228.07 283.29L221.5 279.67C216.31 276.81 209.85 279.93 208.86 285.77L207.6 293.16L201.64 288.6C196.94 285 190.09 287.11 188.23 292.73L185.87 299.85L180.67 294.45C176.56 290.18 169.47 291.24 166.78 296.53L163.39 303.22L159.06 297.12C155.63 292.28 148.45 292.28 145.01 297.12L140.68 303.22L137.29 296.53C134.61 291.25 127.52 290.18 123.4 294.45L118.2 299.85L115.84 292.73C113.98 287.11 107.13 284.99 102.43 288.6L96.47 293.16L95.21 285.77C94.22 279.93 87.76 276.81 82.57 279.67L76 283.29L75.86 275.8C75.75 269.87 69.83 265.83 64.27 267.88L57.24 270.48L58.21 263.05C58.98 257.17 53.72 252.29 47.92 253.5L40.59 255.02L42.65 247.82C44.28 242.12 39.81 236.52 33.89 236.85L26.41 237.27L29.52 230.45C31.98 225.06 28.39 218.85 22.49 218.3L15.03 217.6L19.13 211.32C22.37 206.36 19.75 199.69 14 198.25L6.72 196.44L11.72 190.84C15.67 186.42 14.08 179.43 8.61 177.15L1.68 174.27L7.45 169.49C12.02 165.71 11.49 158.55 6.41 155.49L0 151.62L6.41 147.75C11.48 144.68 12.01 137.53 7.45 133.75L1.68 128.97L8.61 126.09C14.08 123.81 15.67 116.82 11.72 112.4L6.72 106.8L14 104.99C19.75 103.56 22.37 96.89 19.13 91.92L15.03 85.64L22.49 84.94C28.39 84.39 31.98 78.18 29.52 72.79L26.41 65.97L33.89 66.39C39.81 66.72 44.28 61.12 42.65 55.42L40.59 48.22L47.92 49.74C53.72 50.95 58.98 46.06 58.21 40.19L57.24 32.76L64.27 35.36C69.83 37.41 75.75 33.37 75.86 27.44L76 19.95L82.57 23.57C87.76 26.43 94.22 23.31 95.21 17.47L96.47 10.08L102.43 14.64C107.13 18.24 113.98 16.13 115.84 10.51L118.2 3.39L123.4 8.79C127.51 13.06 134.6 12 137.29 6.71L140.68 0L145.01 6.1C148.44 10.94 155.62 10.94 159.06 6.1L163.39 0L166.78 6.69C169.46 11.97 176.55 13.04 180.67 8.77L185.87 3.37L188.23 10.49C190.09 16.11 196.94 18.23 201.64 14.62L207.6 10.06L208.86 17.45C209.85 23.29 216.31 26.41 221.5 23.55L228.07 19.93L228.21 27.42C228.32 33.35 234.24 37.39 239.8 35.34L246.83 32.74L245.86 40.17C245.09 46.05 250.35 50.93 256.15 49.72L263.48 48.2L261.42 55.4C259.79 61.1 264.26 66.7 270.18 66.37L277.66 65.95L274.55 72.77C272.09 78.16 275.68 84.37 281.58 84.92L289.04 85.62L284.94 91.9C281.7 96.86 284.32 103.53 290.07 104.97L297.35 106.78L292.35 112.38C288.4 116.8 289.99 123.79 295.46 126.07L302.39 128.95L296.62 133.73C292.05 137.51 292.58 144.67 297.66 147.73L304.07 151.6V151.62Z" fill="#257D54"/>
<path d="M209.746 75.0936C210.086 59.9151 198.056 47.3356 182.877 46.9964C167.699 46.6573 155.119 58.687 154.78 73.8655C154.441 89.044 166.471 101.624 181.649 101.963C196.828 102.302 209.407 90.2722 209.746 75.0936Z" fill="white"/>
<path d="M191.985 68.0104C192.164 60.0153 185.827 53.3892 177.832 53.2105C169.837 53.0319 163.211 59.3684 163.032 67.3634C162.854 75.3585 169.19 81.9847 177.185 82.1633C185.18 82.3419 191.807 76.0055 191.985 68.0104Z" fill="#262626"/>
<path d="M149.266 73.7284C149.605 58.5499 137.575 45.9703 122.397 45.6312C107.218 45.2921 94.6388 57.3217 94.2996 72.5003C93.9605 87.6788 105.99 100.258 121.169 100.597C136.347 100.937 148.927 88.9069 149.266 73.7284Z" fill="white"/>
<path d="M129.192 69.109C129.371 61.1139 123.034 54.4878 115.039 54.3092C107.044 54.1305 100.418 60.467 100.239 68.4621C100.061 76.4572 106.397 83.0833 114.392 83.2619C122.387 83.4406 129.014 77.1041 129.192 69.109Z" fill="#262626"/>
</svg>
