<svg width="504" height="231" viewBox="0 0 504 231" fill="none" xmlns="http://www.w3.org/2000/svg">
<path d="M344.59 196.65L329.75 133.55C338.87 130.8 346.27 126.56 351.92 120.81C361.36 111.21 365.5 97.5795 364.36 79.9095L359.75 8.76953L304.26 12.3695L308.74 81.5495C308.84 83.0895 308.68 84.3795 308.28 85.4195C307.87 86.4595 307.07 87.0195 305.89 87.0895C304.82 87.1595 303.97 86.7995 303.32 86.0095C302.67 85.2195 302.29 83.8695 302.17 81.9795L297.69 12.7995L242.2 16.3995L246.81 87.5395C247.4 96.6695 249.16 104.5 252.08 111.04C255 117.58 259.04 122.88 264.18 126.95C269.32 131.02 275.67 133.88 283.22 135.54C285.48 136.03 287.84 136.41 290.3 136.7L291.56 196.65C246.24 176.03 230.64 210.16 239.91 230.71H310.58L299.47 137.3C302.57 137.35 305.78 137.28 309.14 137.07C313.04 136.82 316.72 136.38 320.22 135.78L331.49 230.71H404.43C408.62 209.78 385.67 176.35 344.6 196.65H344.59Z" fill="#B91C5C"/>
<path d="M100.84 25.5596L0 32.0896L7.95 154.8L63.44 151.21L61.19 116.53L101.56 113.91L99.2 77.4496L58.83 80.0696L58.4 73.4896L103.75 70.5496L100.84 25.5596Z" fill="#B91C5C"/>
<path d="M242.72 132.98L213.14 18.2803L127.42 23.8303L112.72 141.4L113.14 147.98L173.79 144.05L173.38 132.29L181.56 131.76L182.68 143.48L243.14 139.56L242.72 132.98Z" fill="#B91C5C"/>
<path d="M502.88 118.44L480.06 55.63L495.44 3.56L495.21 0L435.46 3.87L435.65 37.26L431.92 37.5L427.81 4.37L368.05 8.24L368.28 11.8L390.25 61.45L375.73 126.68L376 130.95L435.4 127.1L435.63 94.76L439.37 94.52L443.76 126.56L503.16 122.71L502.88 118.44Z" fill="#B91C5C"/>
<path d="M196.488 100.911C206.288 100.009 213.501 91.3326 212.599 81.5323C211.697 71.7321 203.021 64.5188 193.221 65.421C183.42 66.3233 176.207 74.9994 177.109 84.7996C178.011 94.5999 186.688 101.813 196.488 100.911Z" fill="white"/>
<path d="M192.141 88.4915C197.306 88.016 201.107 83.4443 200.631 78.2802C200.156 73.116 195.584 69.3151 190.42 69.7905C185.256 70.266 181.455 74.8377 181.93 80.0018C182.406 85.1659 186.977 88.9669 192.141 88.4915Z" fill="#262626"/>
<path d="M157.421 104.497C167.222 103.595 174.435 94.9185 173.533 85.1183C172.631 75.318 163.954 68.1047 154.154 69.007C144.354 69.9092 137.141 78.5853 138.043 88.3856C138.945 98.1859 147.621 105.399 157.421 104.497Z" fill="white"/>
<path d="M151.781 93.8391C156.945 93.3637 160.746 88.7919 160.271 83.6278C159.795 78.4637 155.224 74.6628 150.059 75.1382C144.895 75.6136 141.094 80.1854 141.57 85.3495C142.045 90.5136 146.617 94.3145 151.781 93.8391Z" fill="#262626"/>
</svg>
