<?xml version="1.0" encoding="UTF-8"?>
<svg id="Calque_2" data-name="Calque 2" xmlns="http://www.w3.org/2000/svg" viewBox="0 0 800 187.57">
  <defs>
    <style>
      .cls-1 {
        fill: #262626;
      }

      .cls-1, .cls-2 {
        stroke-width: 0px;
      }

      .cls-2 {
        fill: #fff;
      }
    </style>
  </defs>
  <g id="Calque_1-2" data-name="Calque 1">
    <g>
      <path class="cls-1" d="M0,184.16V3.15h105.72c17.49,0,31.57,1.84,42.24,5.51,10.67,3.67,18.45,8.7,23.35,15.08,4.89,6.39,7.35,13.86,7.35,22.43,0,12.77-3.41,22.82-10.23,30.17-6.82,7.34-16.96,11.98-30.43,13.9v5.51c14.51.52,25.71,4.46,33.58,11.81,7.87,7.34,11.81,17.23,11.81,29.64,0,15.57-5.73,27.28-17.18,35.15-11.46,7.87-28.9,11.81-52.33,11.81H0ZM81.32,87.88h2.89c4.02,0,7.12-1.22,9.31-3.67,2.18-2.45,3.28-5.59,3.28-9.44,0-4.37-1.14-7.69-3.41-9.97-2.27-2.27-5.34-3.41-9.18-3.41h-2.89v26.5ZM81.32,127.76h2.89c4.02,0,7.12-1.22,9.31-3.67,2.18-2.45,3.28-5.6,3.28-9.44,0-4.37-1.14-7.69-3.41-9.97-2.27-2.27-5.34-3.41-9.18-3.41h-2.89v26.49Z"/>
      <path class="cls-1" d="M192.6,184.16V3.15h81.32v114.64h45.38v66.37h-126.71Z"/>
      <path class="cls-1" d="M524.13,184.16V3.15h105.72c17.49,0,31.57,1.84,42.24,5.51,10.66,3.67,18.45,8.7,23.35,15.08,4.89,6.39,7.35,13.86,7.35,22.43,0,12.77-3.41,22.82-10.23,30.17-6.82,7.34-16.97,11.98-30.43,13.9v5.51c14.51.52,25.71,4.46,33.58,11.81,7.87,7.34,11.8,17.23,11.8,29.64,0,15.57-5.73,27.28-17.18,35.15-11.46,7.87-28.9,11.81-52.34,11.81h-113.85ZM605.46,87.88h2.89c4.02,0,7.12-1.22,9.31-3.67,2.19-2.45,3.28-5.59,3.28-9.44,0-4.37-1.14-7.69-3.41-9.97-2.27-2.27-5.34-3.41-9.18-3.41h-2.89v26.5ZM605.46,127.76h2.89c4.02,0,7.12-1.22,9.31-3.67,2.19-2.45,3.28-5.6,3.28-9.44,0-4.37-1.14-7.69-3.41-9.97-2.27-2.27-5.34-3.41-9.18-3.41h-2.89v26.49Z"/>
      <path class="cls-1" d="M757.5,187.57c-12.59,0-22.82-3.24-30.69-9.71-7.87-6.47-11.8-15.65-11.8-27.54,0-11.19,3.67-20.16,11.02-26.89,7.34-6.73,17.84-10.1,31.48-10.1,12.59,0,22.82,3.19,30.69,9.58,7.87,6.39,11.8,15.52,11.8,27.41,0,11.19-3.67,20.2-11.02,27.02-7.34,6.82-17.84,10.23-31.48,10.23Z"/>
      <ellipse class="cls-1" cx="418.3" cy="93.39" rx="97.15" ry="93.39"/>
      <g>
        <circle class="cls-2" cx="386.15" cy="97.28" r="28.56"/>
        <circle class="cls-1" cx="391.24" cy="90.33" r="15.04"/>
      </g>
      <g>
        <circle class="cls-2" cx="450.1" cy="97.28" r="28.56"/>
        <circle class="cls-1" cx="457.54" cy="92.94" r="15.04"/>
      </g>
    </g>
  </g>
</svg>