<svg width="169" height="79" viewBox="0 0 169 79" fill="none" xmlns="http://www.w3.org/2000/svg">
<g clip-path="url(#clip0_2512_1355)">
<path d="M84.8186 50.043C97.3252 50.043 107.464 40.3491 107.464 28.391C107.464 16.4329 97.3252 6.73901 84.8186 6.73901C72.312 6.73901 62.1733 16.4329 62.1733 28.391C62.1733 40.3491 72.312 50.043 84.8186 50.043Z" fill="#91DEDA"/>
<path d="M80.8911 38.2671L76.1473 78.0001H57.1273C56.0363 72.5715 62.0184 63.9023 72.7268 69.1669L80.0347 38.2671H80.8886H80.8911Z" fill="#91DEDA"/>
<path d="M100.026 78.0001H81.5977L86.3514 38.2671H87.2078L86.5561 69.1669C98.3731 63.8204 102.44 72.6709 100.026 78.0001Z" fill="#91DEDA"/>
<path d="M77.9498 34.5966C81.3956 34.5966 84.1891 31.8182 84.1891 28.3909C84.1891 24.9635 81.3956 22.1851 77.9498 22.1851C74.5039 22.1851 71.7104 24.9635 71.7104 28.3909C71.7104 31.8182 74.5039 34.5966 77.9498 34.5966Z" fill="white"/>
<path d="M79.0635 30.1491C80.8782 30.1491 82.3492 28.686 82.3492 26.8811C82.3492 25.0762 80.8782 23.613 79.0635 23.613C77.2489 23.613 75.7778 25.0762 75.7778 26.8811C75.7778 28.686 77.2489 30.1491 79.0635 30.1491Z" fill="#0B0C1E"/>
<path d="M91.6841 34.5966C95.13 34.5966 97.9234 31.8182 97.9234 28.3909C97.9234 24.9635 95.13 22.1851 91.6841 22.1851C88.2383 22.1851 85.4448 24.9635 85.4448 28.3909C85.4448 31.8182 88.2383 34.5966 91.6841 34.5966Z" fill="white"/>
<path d="M93.3096 30.7153C95.1242 30.7153 96.5953 29.2521 96.5953 27.4472C96.5953 25.6423 95.1242 24.1792 93.3096 24.1792C91.495 24.1792 90.0239 25.6423 90.0239 27.4472C90.0239 29.2521 91.495 30.7153 93.3096 30.7153Z" fill="#0B0C1E"/>
</g>
<g clip-path="url(#clip1_2512_1355)">
<path d="M159.092 29.3098L156.597 28.3214L159.085 27.3107C162.436 25.9499 164.014 22.2175 162.609 18.9718C161.203 15.7261 157.348 14.1989 153.997 15.5597L151.509 16.5704L152.53 14.1517C153.907 10.8961 152.295 7.17357 148.933 5.84252C145.57 4.50898 141.729 6.0685 140.352 9.3266L139.33 11.7453L138.288 9.33653C136.882 6.09085 133.027 4.56361 129.676 5.92447C126.325 7.28532 124.747 11.0177 126.152 14.2634L127.195 16.6722L124.699 15.6839C121.337 14.3503 117.495 15.9099 116.119 19.168C114.742 22.4236 116.353 26.1461 119.716 27.4771L122.211 28.4655L119.723 29.4762C116.372 30.837 114.794 34.5694 116.199 37.8151C117.604 41.0608 121.46 42.5881 124.811 41.2272L127.299 40.2165L126.278 42.6352C124.901 45.8909 126.512 49.6133 129.875 50.9444C133.238 52.2754 137.079 50.7184 138.456 47.4603L139.477 45.0416L140.52 47.4504C141.925 50.6961 145.781 52.2233 149.132 50.8624C152.483 49.5016 154.061 45.7692 152.656 42.5235L151.613 40.1147L154.108 41.103C157.471 42.4366 161.312 40.8771 162.689 37.619C164.066 34.3633 162.455 30.6409 159.092 29.3098Z" fill="#D30D4C"/>
<path d="M135.676 38.2671L131.174 78.0001H113.121C112.085 72.5715 117.763 63.9023 127.927 69.1669L134.863 38.2671H135.674H135.676Z" fill="#D30D4C"/>
<path d="M153.838 78.0001H136.347L140.859 38.2671H141.672L141.054 69.1669C152.27 63.8204 156.13 72.6709 153.838 78.0001Z" fill="#D30D4C"/>
<path d="M132.885 34.5966C136.156 34.5966 138.807 31.8182 138.807 28.3909C138.807 24.9635 136.156 22.1851 132.885 22.1851C129.614 22.1851 126.963 24.9635 126.963 28.3909C126.963 31.8182 129.614 34.5966 132.885 34.5966Z" fill="white"/>
<path d="M133.942 30.1491C135.664 30.1491 137.06 28.686 137.06 26.8811C137.06 25.0762 135.664 23.613 133.942 23.613C132.219 23.613 130.823 25.0762 130.823 26.8811C130.823 28.686 132.219 30.1491 133.942 30.1491Z" fill="#262626"/>
<path d="M145.921 34.5966C149.192 34.5966 151.843 31.8182 151.843 28.3909C151.843 24.9635 149.192 22.1851 145.921 22.1851C142.65 22.1851 139.999 24.9635 139.999 28.3909C139.999 31.8182 142.65 34.5966 145.921 34.5966Z" fill="white"/>
<path d="M147.464 30.7153C149.186 30.7153 150.582 29.2521 150.582 27.4472C150.582 25.6423 149.186 24.1792 147.464 24.1792C145.741 24.1792 144.345 25.6423 144.345 27.4472C144.345 29.2521 145.741 30.7153 147.464 30.7153Z" fill="#262626"/>
</g>
<g clip-path="url(#clip2_2512_1355)">
<path d="M58.1695 17.7837C40.3758 20.3545 37.8492 17.8398 42.1809 0.935047C31.7124 15.0805 28.1022 14.8385 18.6072 0C21.2545 17.2793 18.6649 19.7328 1.25683 15.5264C15.8235 25.6921 15.5742 29.1979 0.293945 38.4184C18.0877 35.8477 20.6143 38.3624 16.2826 55.2671C26.7511 41.1217 30.3612 41.3637 39.8563 56.2022C37.209 38.9229 39.7986 36.4694 57.2066 40.6758C42.64 30.51 42.8893 27.0043 58.1695 17.7837Z" fill="#FAA24B"/>
<path d="M25.1059 38.2351L20.1209 79.0001H0.133798C-1.01275 73.4306 5.27357 64.5362 16.5265 69.9375L24.206 38.2351H25.1033H25.1059Z" fill="#FAA24B"/>
<path d="M45.214 79.0001H25.8486L30.8441 38.2351H31.744L31.0592 69.9375C43.4771 64.4521 47.7511 73.5325 45.214 79.0001Z" fill="#FAA24B"/>
<path d="M22.0151 34.4693C25.6361 34.4693 28.5716 31.6187 28.5716 28.1023C28.5716 24.5859 25.6361 21.7354 22.0151 21.7354C18.394 21.7354 15.4585 24.5859 15.4585 28.1023C15.4585 31.6187 18.394 34.4693 22.0151 34.4693Z" fill="white"/>
<path d="M23.1852 29.9063C25.0921 29.9063 26.6379 28.4051 26.6379 26.5534C26.6379 24.7016 25.0921 23.2004 23.1852 23.2004C21.2783 23.2004 19.7324 24.7016 19.7324 26.5534C19.7324 28.4051 21.2783 29.9063 23.1852 29.9063Z" fill="#0B0C1E"/>
<path d="M36.4477 34.4693C40.0688 34.4693 43.0042 31.6187 43.0042 28.1023C43.0042 24.5859 40.0688 21.7354 36.4477 21.7354C32.8266 21.7354 29.8911 24.5859 29.8911 28.1023C29.8911 31.6187 32.8266 34.4693 36.4477 34.4693Z" fill="white"/>
<path d="M38.1559 30.4871C40.0628 30.4871 41.6086 28.9859 41.6086 27.1342C41.6086 25.2824 40.0628 23.7812 38.1559 23.7812C36.249 23.7812 34.7031 25.2824 34.7031 27.1342C34.7031 28.9859 36.249 30.4871 38.1559 30.4871Z" fill="#0B0C1E"/>
</g>
<defs>
<clipPath id="clip0_2512_1355">
<rect width="59" height="77" fill="white" transform="translate(57 1)"/>
</clipPath>
<clipPath id="clip1_2512_1355">
<rect width="56" height="77" fill="white" transform="translate(113 1)"/>
</clipPath>
<clipPath id="clip2_2512_1355">
<rect width="62" height="79" fill="white"/>
</clipPath>
</defs>
</svg>
