<svg width="465" height="244" viewBox="0 0 465 244" fill="none" xmlns="http://www.w3.org/2000/svg">
<path d="M266.49 203.02L246.57 137.63L256.65 138.22L256.87 134.48L244.44 93.76C249.89 90.15 254.08 85.55 257.03 79.95C259.97 74.35 261.66 67.94 262.09 60.7C262.7 50.38 260.82 41.76 256.47 34.84C252.11 27.92 245.76 22.58 237.42 18.82C229.07 15.06 219.21 12.84 207.82 12.17L140.39 8.20996L133.19 130.96L188.7 134.22L190.32 106.64L193.88 106.85L197.78 134.75L207.48 135.32L213.58 206.43C167.02 188.78 153.66 223.84 164.23 243.75L234.75 239.19L215.61 135.8L236.98 137.05L255.61 237.84L328.4 233.13C331.23 211.97 306.17 180.1 266.5 203L266.49 203.02ZM201.35 70.53C201.14 74.09 200.41 76.96 199.15 79.15C197.89 81.34 195.72 82.34 192.64 82.16L191.75 82.11L193.18 57.74L194.07 57.79C196.56 57.94 198.46 58.97 199.78 60.89C201.1 62.81 201.62 66.03 201.36 70.53H201.35Z" fill="#257D54"/>
<path d="M66.07 50.45C65.55 55.3 65.1 59.85 64.73 64.12C64.36 68.38 64.09 71.91 63.93 74.69C63.77 77.48 63.67 79.17 63.63 79.76L59.01 79.49C59.04 78.9 59.11 77.21 59.22 74.41C59.32 71.62 59.47 68.09 59.66 63.81C59.85 59.54 59.97 54.96 60.02 50.08L60.79 3.53L0.3 0L0 5.16L15.34 124.06L101.8 129.13L130.94 12.84L131.24 7.68L70.75 4.13L66.07 50.45Z" fill="#257D54"/>
<path d="M292.19 17.1299L263.14 132L262.75 138.58L323.42 142.14L324.46 130.42L332.65 130.9L332.31 142.66L392.8 146.21L393.19 139.63L377.94 22.1599L292.19 17.1299Z" fill="#257D54"/>
<path d="M409.232 23.9904L402.024 146.749L457.529 150.008L464.736 27.2491L409.232 23.9904Z" fill="#257D54"/>
<path d="M368.385 81.5148C368.802 71.6819 361.169 63.3725 351.337 62.9552C341.504 62.538 333.194 70.1708 332.777 80.0037C332.36 89.8365 339.993 98.1459 349.825 98.5632C359.658 98.9804 367.968 91.3476 368.385 81.5148Z" fill="white"/>
<path d="M356.97 76.696C357.19 71.5147 353.168 67.1361 347.986 66.9163C342.805 66.6964 338.427 70.7184 338.207 75.8997C337.987 81.081 342.009 85.4595 347.19 85.6794C352.371 85.8993 356.75 81.8772 356.97 76.696Z" fill="#262626"/>
<path d="M329.205 79.8487C329.623 70.0158 321.99 61.7065 312.157 61.2892C302.324 60.8719 294.015 68.5048 293.597 78.3376C293.18 88.1705 300.813 96.4799 310.646 96.8971C320.479 97.3144 328.788 89.6816 329.205 79.8487Z" fill="white"/>
<path d="M316.244 76.5837C316.464 71.4024 312.442 67.0238 307.261 66.804C302.08 66.5841 297.701 70.6061 297.481 75.7874C297.261 80.9687 301.283 85.3472 306.465 85.5671C311.646 85.7869 316.024 81.7649 316.244 76.5837Z" fill="#262626"/>
</svg>
